# xmcd
#
# Track frame offsets:
#	150
#	20690
#	35672
#	53347
#	69362
#	88352
#	114817
#	130930
#	148497
#	170710
#
# Disc length: 2602 seconds
#
# Revision: 2978273767
# Processed by: cddbd v1.5.2PL0 Copyright (c) Steve Scherf et al.
# Submitted via: EZCDAudioConverter 8.0.2.1
#
DISCID=8e0a280a
DTITLE=Ngọc Lan - Dù Thương Không Nói
DYEAR=1991
DGENRE=
TTITLE0=Kỷ niệm xa bay
TTITLE1=Dù Thương Không Nói
TTITLE2=Người đưa thư đã qua
TTITLE3=Chàng đi theo nước
TTITLE4=Nét son buồn
TTITLE5=Hoa xuân
TTITLE6=Tôi đã gặp
TTITLE7=Cánh thiệp đầu xuân
TTITLE8=Tôi đi tìm lại mùa xuân
TTITLE9=Bóng nhỏ giáo đường
EXTD=
EXTT0=
EXTT1=
EXTT2=
EXTT3=
EXTT4=
EXTT5=
EXTT6=
EXTT7=
EXTT8=
EXTT9=
PLAYORDER=
